<?xml version="1.0" encoding="UTF-8" standalone="no"?>
<!DOCTYPE svg PUBLIC "-//W3C//DTD SVG 1.1//EN" "http://www.w3.org/Graphics/SVG/1.1/DTD/svg11.dtd">
<svg width="100%" height="100%" viewBox="0 0 420 420" version="1.1" xmlns="http://www.w3.org/2000/svg" xmlns:xlink="http://www.w3.org/1999/xlink" xml:space="preserve" xmlns:serif="http://www.serif.com/" style="fill-rule:evenodd;clip-rule:evenodd;">
    <rect x="0" y="0" width="420" height="420" style="fill:rgb(21,26,25);"/>
    <g id="path3822" transform="matrix(0.933045,0,0,0.945448,14.0606,11.5534)">
        <path d="M226.199,16.657C343.406,132.216 343.406,288.329 226.199,403.889M59,333.215C149.124,268.919 270.876,268.919 361,333.215M197.171,14.794C79.153,131.154 79.153,288.349 197.171,404.71M209,15C102.405,15.547 15,103.401 15,209.997C15,316.971 103.026,404.997 210,404.997C316.974,404.997 405,316.971 405,209.997C405,103.401 317.595,15.547 211,15L209,15ZM210,15L210,405M405,210L15,210M59,92.669C149.124,156.965 270.876,156.965 361,92.669" style="fill:none;fill-rule:nonzero;stroke:rgb(191,231,225);stroke-width:20px;"/>
    </g>
</svg>
