<?xml version="1.0" encoding="UTF-8" standalone="no"?>
<!DOCTYPE svg PUBLIC "-//W3C//DTD SVG 1.1//EN" "http://www.w3.org/Graphics/SVG/1.1/DTD/svg11.dtd">
<svg class="lumon-logo" width="476px" height="213px" version="1.1" xmlns="http://www.w3.org/2000/svg" xmlns:xlink="http://www.w3.org/1999/xlink" xml:space="preserve" xmlns:serif="http://www.serif.com/" style="fill-rule:evenodd;clip-rule:evenodd;stroke-linecap:round;stroke-linejoin:round;stroke-miterlimit:1.5;">
  <path class="circle-1" d="M237.672,210.725C107.601,210.725 2,163.962 2,106.362C2,48.763 107.601,2 237.672,2C367.743,2 473.344,48.763 473.344,106.362C473.344,163.962 367.743,210.725 237.672,210.725" style="fill:none;stroke: var(--color-foreground, #000);stroke-width:4px;"/>
  <path class="circle-2" d="M237.672,210.725C136.892,210.725 55.071,163.962 55.071,106.362C55.071,48.763 136.892,2 237.672,2C338.452,2 420.273,48.763 420.273,106.362C420.273,163.962 338.452,210.725 237.672,210.725" style="fill:none;stroke: var(--color-foreground, #000);stroke-width:4px;"/>
  <path class="circle-3" d="M237.672,210.725C188.289,210.725 148.196,163.962 148.196,106.362C148.196,48.763 188.289,2 237.672,2C287.055,2 327.148,48.763 327.148,106.362C327.148,163.962 287.055,210.725 237.672,210.725" style="fill:none;stroke: var(--color-foreground, #000);stroke-width:4px;"/>
  <path class="bar-top" d="M49.399,43.386L425.924,43.883" style="fill:none;stroke: var(--color-foreground, #000);stroke-width:4px;stroke-linecap:butt;"/>
  <path class="bar-bottom" d="M49.399,169.153L425.339,169.649" style="fill:none;stroke: var(--color-foreground, #000);stroke-width:4px;stroke-linecap:butt;"/>
  <rect class="text-bg" x="46.77" y="67.587" width="381.805" height="77.551" style="fill:var(--color-background, #fff);"/>
  <g class="text" style="fill:var(--color-foreground, #000);">
    <path d="M283.469,125.366C285.953,128.966 289.547,130.27 293.772,130.266C307.42,130.255 321.067,130.262 334.715,130.26C335.183,130.26 335.651,130.247 336.118,130.225C342.278,129.933 346.925,125.45 347.031,119.294C347.179,110.685 347.151,102.07 347.037,93.46C346.972,88.482 343.826,84.412 339.22,83.091C337.746,82.668 336.153,82.509 334.611,82.495C327.827,82.433 321.041,82.468 314.257,82.468C307.511,82.468 300.765,82.448 294.019,82.485C292.704,82.492 291.354,82.575 290.081,82.878C284.716,84.156 281.544,88.32 281.465,94.433C281.362,102.381 281.428,110.332 281.446,118.281C281.454,120.823 282.005,123.244 283.469,125.366ZM304.462,105.656C307.085,101.335 312.722,92.017 312.95,91.703C313.914,90.372 314.87,90.358 315.812,91.691C316.282,92.357 321.569,101.44 324.015,105.132C328.575,112.013 324.322,120.098 317.003,121.701C316.172,121.883 315.227,121.784 314.381,121.893C308.377,121.803 303.48,117.507 302.988,111.789C302.8,109.596 303.316,107.544 304.462,105.656Z" style="fill-rule:nonzero;"/>
    <path d="M197.701,129.999C200.118,129.999 202.536,130 204.953,129.999C206.761,129.998 206.879,129.882 206.879,128.079C206.88,118.143 206.88,108.207 206.88,98.27L206.88,96.882C206.98,96.806 207.081,96.73 207.181,96.654C207.542,96.994 207.985,97.28 208.251,97.683C214.984,107.892 221.715,118.101 228.392,128.346C229.189,129.57 230.081,130.104 231.544,130.026C233.566,129.918 235.6,129.939 237.624,130.021C238.865,130.071 239.661,129.611 240.32,128.583C242.568,125.074 244.874,121.603 247.157,118.117C251.617,111.308 256.073,104.497 260.55,97.699C260.82,97.29 261.261,96.993 261.622,96.645C261.723,96.717 261.825,96.79 261.926,96.862L261.926,98.251C261.926,108.265 261.924,118.279 261.928,128.294C261.929,129.761 262.163,129.993 263.622,129.997C266.312,130.004 269.003,130.004 271.693,129.997C273.073,129.993 273.295,129.773 273.295,128.34C273.299,113.689 273.3,99.038 273.295,84.387C273.295,82.935 273.074,82.735 271.57,82.734C267.71,82.73 263.849,82.791 259.991,82.702C258.572,82.669 257.711,83.147 256.938,84.331C249.847,95.189 242.702,106.012 235.572,116.845C234.622,118.288 234.187,118.294 233.255,116.878C226.083,105.98 218.903,95.086 211.754,84.173C211.091,83.161 210.348,82.681 209.088,82.705C205.19,82.78 201.29,82.731 197.391,82.733C195.705,82.734 195.505,82.929 195.505,84.602C195.502,91.616 195.504,98.63 195.504,105.644L195.504,127.855C195.504,129.914 195.591,129.998 197.701,129.999Z" style="fill-rule:nonzero;"/>
    <path d="M357.347,129.996C359.998,130.006 362.649,130.001 365.3,129.999C367.002,129.997 367.144,129.853 367.145,128.115C367.147,117.635 367.146,107.155 367.146,96.675L367.146,94.89C367.845,95.234 368.37,95.376 368.742,95.695C370.812,97.471 372.845,99.29 374.892,101.093C385.477,110.418 396.057,119.75 406.667,129.046C407.208,129.52 408.012,129.937 408.705,129.956C412.055,130.05 415.409,129.977 418.762,130.01C419.884,130.021 420.274,129.521 420.273,128.451C420.26,113.725 420.266,98.998 420.26,84.272C420.26,83.004 419.966,82.738 418.638,82.734C415.987,82.726 413.336,82.729 410.685,82.732C408.982,82.734 408.834,82.885 408.834,84.618C408.833,95.137 408.834,105.656 408.834,116.175L408.834,117.838C408.149,117.485 407.629,117.333 407.26,117.009C400.662,111.235 394.082,105.44 387.498,99.649C381.499,94.373 375.492,89.107 369.513,83.808C368.644,83.038 367.752,82.678 366.572,82.706C363.533,82.778 360.491,82.726 357.45,82.732C356.054,82.735 355.776,82.99 355.775,84.34C355.77,99.028 355.77,113.715 355.775,128.403C355.775,129.71 356.061,129.99 357.347,129.996Z" style="fill-rule:nonzero;"/>
    <path d="M120.118,119.808C120.527,124.954 123.516,128.453 128.546,129.525C130.019,129.839 131.556,129.968 133.065,129.978C139.616,130.026 146.167,129.998 152.717,129.999C159.268,129.999 165.819,130.012 172.37,129.988C173.613,129.983 174.87,129.923 176.096,129.733C180.606,129.034 183.828,126.72 185.042,122.158C185.399,120.818 185.588,119.393 185.593,118.006C185.637,106.783 185.621,95.56 185.618,84.337C185.618,82.957 185.385,82.738 183.955,82.734C181.421,82.727 178.886,82.731 176.351,82.732C174.324,82.732 174.288,82.768 174.288,84.853C174.287,95.141 174.288,105.428 174.287,115.716C174.287,119.925 173.446,120.765 169.214,120.766C158.257,120.768 147.3,120.769 136.343,120.762C135.682,120.762 135.016,120.734 134.36,120.656C132.465,120.433 131.506,119.428 131.36,117.534C131.321,117.03 131.338,116.521 131.338,116.015C131.337,105.571 131.338,95.128 131.337,84.684C131.337,82.798 131.27,82.733 129.339,82.732C126.882,82.731 124.426,82.731 121.969,82.732C120.115,82.733 120.002,82.846 120.002,84.739C120.001,95.533 119.999,106.328 120.006,117.122C120.008,118.017 120.047,118.915 120.118,119.808Z" style="fill-rule:nonzero;"/>
    <path d="M56.798,129.997C59.604,130.003 62.411,129.999 65.217,129.999C81.237,129.999 97.257,130 113.277,129.998C114.9,129.998 115.102,129.799 115.109,128.197C115.116,126.444 115.112,124.691 115.111,122.938C115.11,120.856 115.022,120.767 112.94,120.767C97.972,120.766 83.005,120.767 68.037,120.767L66.406,120.767L66.406,119.143C66.406,107.613 66.407,96.083 66.404,84.552C66.404,82.88 66.256,82.735 64.625,82.733C62.013,82.73 59.402,82.728 56.79,82.734C55.28,82.737 55.073,82.935 55.073,84.4C55.07,99.046 55.07,113.693 55.073,128.339C55.073,129.8 55.279,129.994 56.798,129.997Z" style="fill-rule:nonzero;"/>
  </g>
</svg>